P3
# feep.ppm
2 8
15
10  7  0    0  0  0
0  0  0    0 10  7
0  0  0    0  0  0
15  0 15   0  0  0
10  7  0    0  0  0
0  0  0    0 10  7
0  0  0    0  0  0
15  0 15   0  0  0
